<svg width="176" height="40" viewBox="0 0 176 40" fill="none" xmlns="http://www.w3.org/2000/svg">
<path d="M16.0429 27.3063C13.8665 26.498 11.628 26.3736 9.57596 26.9333C8.14578 27.3063 6.77778 28.0525 5.53414 28.9852L4.66358 29.7314L4.41486 29.9802L4.97449 30.4776C5.03667 30.4776 5.03668 30.5398 5.09886 30.602C5.22322 30.7263 5.34759 30.7885 5.53414 30.9129L5.90722 31.1616L6.28031 30.8507C6.34249 30.7885 6.46686 30.6642 6.59122 30.602C7.71049 29.6692 8.95412 29.0474 10.2599 28.7365C11.9389 28.3012 13.7421 28.3634 15.5454 29.0474C17.0378 29.6071 20.0847 30.2911 23.7534 28.7365L23.8778 28.6743L24.0643 28.4878C24.0643 28.4256 24.1265 28.4256 24.1887 28.3634C24.4996 27.9903 24.8105 27.6172 25.0592 27.182L26.3029 25.2543L24.313 26.3736C21.3905 27.9903 18.7167 28.3012 16.0429 27.3063Z" fill="#55B02E"/>
<path d="M7.52395 20.5907C9.20286 20.1554 11.0061 20.2176 12.8094 20.9016C14.7992 21.6478 19.8981 22.7049 25.6189 17.5438L26.5516 16.6111L26.6138 16.5489L26.8625 16.3002L26.7381 15.9893C26.6759 15.7405 26.5516 15.4296 26.4272 15.1187L26.1163 14.2482L25.4945 14.87C25.4323 14.9944 25.3079 15.0565 25.1836 15.1809C22.4476 17.9791 18.2192 20.8395 13.369 19.0984C11.1927 18.29 8.95413 18.1656 6.90213 18.7253C4.91231 19.2849 3.17122 20.342 1.55449 21.8344V21.7722L0.621761 22.7671C0.621761 22.8293 0.559591 22.8293 0.497409 22.8915L0.310852 23.078L0.373038 23.3267C0.435219 23.6376 0.559579 23.9485 0.621761 24.2594L0.994856 25.2544L1.61667 24.446C1.67886 24.3216 1.80322 24.2595 1.8654 24.1351C3.17122 22.9536 4.97449 21.2747 7.52395 20.5907Z" fill="#55B02E"/>
<path d="M1.49238 19.4714C2.92256 17.9791 4.53928 17.0463 6.28037 16.5489C7.95928 16.1136 9.76255 16.1758 11.5658 16.8598C17.1622 18.9118 22.0124 15.554 24.1266 13.7507L24.9349 12.9424L25.2458 12.6936L24.9971 12.3205C24.8106 12.134 24.6862 11.8853 24.4997 11.6365L24.1266 11.1391L23.6913 11.5743C23.6291 11.6365 23.5047 11.7609 23.4426 11.8231C20.8309 14.3103 16.7891 16.8598 12.1876 15.1187C10.0113 14.3104 7.77273 14.186 5.72074 14.7456C4.41492 15.1187 3.17128 15.7405 1.92764 16.5489L0.621818 17.606C0.497455 17.7304 0.435273 17.7925 0.310909 17.9169L0.186557 18.0413V18.2278C0.124375 18.6631 0.124367 19.0984 0.0621856 19.4714L0 21.026L1.0571 19.9067C1.18146 19.7823 1.30583 19.5958 1.49238 19.4714Z" fill="#55B02E"/>
<path d="M17.8462 31.5347L17.7218 31.9078L17.8462 31.5347C17.6597 31.4725 17.5353 31.4103 17.3488 31.3481C15.1724 30.5398 12.9338 30.4154 10.8818 30.9751C10.4466 31.0994 10.0113 31.2238 9.57603 31.4103L8.08365 32.0943L7.71057 32.2809L8.95421 32.7162C9.3273 32.8405 9.70038 32.9649 10.0735 33.0892L10.26 33.1514L10.4466 33.0892C10.6331 33.0271 10.8197 32.9027 11.0062 32.9027C11.1306 32.9027 11.2549 32.8405 11.3793 32.7783C12.8717 32.4052 14.4884 32.4052 16.2295 32.9649C16.416 33.0271 16.5404 33.0893 16.7269 33.1514L17.0378 33.2758L17.2244 33.2136C17.6597 33.0892 18.1571 32.9649 18.5302 32.7783L20.2713 32.1565L18.468 31.7212C18.2815 31.6591 18.0327 31.5969 17.8462 31.5347Z" fill="#55B02E"/>
<path d="M27.36 18.6631L26.4273 19.5958C26.3029 19.7202 26.1786 19.8445 26.0542 19.9689C23.5047 22.394 19.4007 25.0056 14.7993 23.2645C12.6229 22.4562 10.3844 22.3318 8.33237 22.8915C6.40473 23.4511 4.66363 24.446 3.10908 25.9384L2.30073 26.8089L2.052 27.1198L2.30073 27.4929C2.48727 27.7416 2.61164 27.9282 2.73601 28.1769L3.10908 28.7365L3.54436 28.1769C3.60654 28.1147 3.7309 27.9904 3.79309 27.9282C5.28545 26.3114 6.90218 25.3165 8.76763 24.8191C10.4465 24.3838 12.2498 24.446 14.0531 25.13C15.6076 25.6896 17.2244 25.8762 18.8411 25.6896C21.7015 25.3787 24.5618 23.762 26.676 21.9587C26.8004 21.8344 26.9247 21.7722 27.0491 21.6478L27.2356 21.4613V21.2747C27.2356 20.9016 27.2978 20.4664 27.2978 20.0933L27.36 18.6631Z" fill="#55B02E"/>
<path d="M3.73088 12.9424L3.54434 12.5693L3.73088 12.9424C4.10397 12.7558 4.53926 12.6315 4.91235 12.5071C6.59126 12.0718 8.39453 12.134 10.1978 12.818C11.3793 13.2533 12.5607 13.4398 13.8665 13.4398C16.4782 13.4398 19.0898 12.5071 21.5149 10.7038L22.4476 9.95764L22.7585 9.70892L22.1989 9.27364C22.0123 9.08709 21.7636 8.90055 21.5149 8.77619L21.1418 8.52747L20.8309 8.77619C20.7065 8.83837 20.6443 8.96273 20.52 9.02491C17.2243 11.5122 13.9287 12.1962 10.8196 11.0147C8.58108 10.2064 6.34252 10.0198 4.10397 10.7038C3.91743 10.766 3.73088 10.8282 3.48216 10.8904L3.3578 10.9526L3.17125 11.1391C3.17125 11.2013 3.10908 11.2013 3.04689 11.2635C2.79817 11.6366 2.48725 11.9475 2.23852 12.3206L1.05707 14.1238L2.98471 13.1289C3.29562 13.1289 3.54433 13.0046 3.73088 12.9424Z" fill="#55B02E"/>
<path d="M8.82979 8.71399L9.01633 8.77617C9.82469 9.08708 11.0683 9.39799 12.6229 9.39799C14.2396 9.39799 15.7942 9.0249 17.3487 8.40308L19.2763 7.47035L17.9705 7.03509C17.5974 6.91073 17.2243 6.78636 16.7891 6.72418H16.6025L16.416 6.78635C16.2294 6.84853 16.0429 6.97291 15.8563 7.03509C13.9909 7.71909 12.1254 7.84345 10.3222 7.346C10.1356 7.28382 9.94906 7.22163 9.76252 7.15944L9.57598 7.09726L9.38942 7.15944C9.01633 7.28381 8.64325 7.40818 8.27016 7.59472L6.83997 8.21654L8.33234 8.6518C8.45671 8.58962 8.64325 8.65181 8.82979 8.71399Z" fill="#55B02E"/>
<path d="M48.3159 28.5V17.832H43.8079V28.5H40.1119V17.832H38.0679V15.144H40.1119V13.912C40.1119 13.0347 40.2426 12.26 40.5039 11.588C40.7653 10.916 41.1386 10.3467 41.6239 9.88C42.1093 9.41333 42.6879 9.068 43.3599 8.844C44.0506 8.60133 44.8159 8.48 45.6559 8.48C46.3653 8.48 47.0746 8.57333 47.7839 8.76C48.4933 8.928 49.1186 9.152 49.6599 9.432L48.9039 11.868C48.5679 11.7187 48.2133 11.5973 47.8399 11.504C47.4666 11.392 47.0746 11.336 46.6639 11.336C45.7119 11.336 44.9933 11.56 44.5079 12.008C44.0413 12.456 43.8079 13.2307 43.8079 14.332V15.144H52.0399V28.5H48.3159ZM59.2388 28.5H55.5148V15.144H58.4268L58.8748 16.852C59.4908 16.2173 60.1628 15.732 60.8908 15.396C61.6374 15.0413 62.4588 14.864 63.3548 14.864C64.8294 14.864 65.9588 15.2653 66.7428 16.068C67.5268 16.8707 67.9188 18.0373 67.9188 19.568V28.5H64.1948V19.96C64.1948 19.2693 64.0268 18.728 63.6908 18.336C63.3548 17.9253 62.8601 17.72 62.2068 17.72C61.7214 17.72 61.2081 17.86 60.6668 18.14C60.1441 18.4013 59.6681 18.7653 59.2388 19.232V28.5ZM71.4067 16.32C72.2094 15.8533 73.0587 15.4987 73.9547 15.256C74.8507 14.9947 75.8027 14.864 76.8107 14.864C77.6134 14.864 78.3414 14.9573 78.9947 15.144C79.6667 15.3307 80.2361 15.6293 80.7027 16.04C81.1881 16.432 81.5521 16.9453 81.7947 17.58C82.0561 18.196 82.1867 18.9427 82.1867 19.82V28.5H79.3027L78.9667 27.128H78.8547C78.4254 27.6507 77.8747 28.0613 77.2027 28.36C76.5494 28.6587 75.7841 28.808 74.9067 28.808C74.1787 28.808 73.5347 28.7053 72.9747 28.5C72.4147 28.276 71.9387 27.9867 71.5467 27.632C71.1547 27.2587 70.8561 26.82 70.6507 26.316C70.4641 25.812 70.3707 25.2707 70.3707 24.692C70.3707 23.9267 70.5294 23.2733 70.8467 22.732C71.1827 22.172 71.6401 21.7147 72.2187 21.36C72.7974 21.0053 73.4694 20.744 74.2347 20.576C75.0187 20.408 75.8587 20.324 76.7547 20.324H78.4347V19.512C78.4347 18.896 78.2387 18.448 77.8467 18.168C77.4734 17.8693 76.9414 17.72 76.2507 17.72C75.7094 17.72 75.1494 17.804 74.5707 17.972C74.0107 18.14 73.3854 18.4107 72.6947 18.784L71.4067 16.32ZM78.4627 22.648L77.2587 22.676C76.1201 22.7133 75.3267 22.9093 74.8787 23.264C74.4307 23.6 74.2067 24.0107 74.2067 24.496C74.2067 25.1307 74.3934 25.5693 74.7667 25.812C75.1587 26.036 75.5974 26.148 76.0827 26.148C76.5681 26.148 77.0254 26.008 77.4547 25.728C77.9027 25.448 78.2387 25.1213 78.4627 24.748V22.648ZM89.0708 28.5H85.3468V15.144H88.2588L88.7068 16.852C89.3228 16.2173 89.9948 15.732 90.7228 15.396C91.4695 15.0413 92.2908 14.864 93.1868 14.864C94.6615 14.864 95.7908 15.2653 96.5748 16.068C97.3588 16.8707 97.7508 18.0373 97.7508 19.568V28.5H94.0268V19.96C94.0268 19.2693 93.8588 18.728 93.5228 18.336C93.1868 17.9253 92.6921 17.72 92.0388 17.72C91.5535 17.72 91.0401 17.86 90.4988 18.14C89.9761 18.4013 89.5001 18.7653 89.0708 19.232V28.5ZM108.151 26.064C108.749 26.064 109.271 25.9893 109.719 25.84C110.186 25.672 110.569 25.5133 110.867 25.364L111.567 27.94C111.194 28.1453 110.653 28.3413 109.943 28.528C109.234 28.7147 108.459 28.808 107.619 28.808C106.611 28.808 105.669 28.6587 104.791 28.36C103.914 28.0613 103.149 27.6227 102.495 27.044C101.861 26.4467 101.357 25.7187 100.983 24.86C100.61 24.0013 100.423 23.0027 100.423 21.864C100.423 20.8187 100.601 19.8667 100.955 19.008C101.31 18.1493 101.805 17.412 102.439 16.796C103.074 16.18 103.839 15.704 104.735 15.368C105.631 15.032 106.611 14.864 107.675 14.864C108.254 14.864 108.861 14.92 109.495 15.032C110.149 15.144 110.83 15.3867 111.539 15.76L110.755 18.336C110.363 18.112 109.934 17.9347 109.467 17.804C109.019 17.6547 108.562 17.58 108.095 17.58C106.938 17.58 105.995 17.9347 105.267 18.644C104.558 19.3533 104.203 20.3893 104.203 21.752C104.203 22.5547 104.315 23.236 104.539 23.796C104.782 24.3373 105.09 24.776 105.463 25.112C105.837 25.448 106.257 25.6907 106.723 25.84C107.19 25.9893 107.666 26.064 108.151 26.064ZM125.219 22.788H116.343V22.9C116.343 23.964 116.717 24.7573 117.463 25.28C118.21 25.8027 119.171 26.064 120.347 26.064C121.094 26.064 121.747 25.9893 122.307 25.84C122.886 25.6907 123.409 25.5133 123.875 25.308L124.547 27.912C124.043 28.1547 123.409 28.36 122.643 28.528C121.878 28.7147 120.973 28.808 119.927 28.808C118.919 28.808 117.967 28.6773 117.071 28.416C116.194 28.136 115.419 27.716 114.747 27.156C114.094 26.596 113.571 25.8867 113.179 25.028C112.787 24.1693 112.591 23.1427 112.591 21.948C112.591 20.884 112.75 19.9227 113.067 19.064C113.385 18.1867 113.833 17.44 114.411 16.824C115.009 16.208 115.718 15.732 116.539 15.396C117.361 15.0413 118.275 14.864 119.283 14.864C121.094 14.864 122.531 15.4147 123.595 16.516C124.678 17.6173 125.219 19.1573 125.219 21.136V22.788ZM121.411 20.24C121.411 19.8853 121.365 19.54 121.271 19.204C121.197 18.868 121.066 18.5787 120.879 18.336C120.693 18.0747 120.459 17.8693 120.179 17.72C119.899 17.5707 119.554 17.496 119.143 17.496C118.397 17.496 117.781 17.748 117.295 18.252C116.81 18.756 116.521 19.4373 116.427 20.296L121.411 20.24ZM128.679 24.86C129.258 24.86 129.724 25.0467 130.079 25.42C130.434 25.7747 130.611 26.2507 130.611 26.848C130.611 27.4267 130.434 27.9027 130.079 28.276C129.724 28.6307 129.258 28.808 128.679 28.808C128.119 28.808 127.652 28.6307 127.279 28.276C126.924 27.9027 126.747 27.4267 126.747 26.848C126.747 26.2507 126.924 25.7747 127.279 25.42C127.652 25.0467 128.119 24.86 128.679 24.86ZM133.094 16.32C133.897 15.8533 134.746 15.4987 135.642 15.256C136.538 14.9947 137.49 14.864 138.498 14.864C139.301 14.864 140.029 14.9573 140.682 15.144C141.354 15.3307 141.924 15.6293 142.39 16.04C142.876 16.432 143.24 16.9453 143.482 17.58C143.744 18.196 143.874 18.9427 143.874 19.82V28.5H140.99L140.654 27.128H140.542C140.113 27.6507 139.562 28.0613 138.89 28.36C138.237 28.6587 137.472 28.808 136.594 28.808C135.866 28.808 135.222 28.7053 134.662 28.5C134.102 28.276 133.626 27.9867 133.234 27.632C132.842 27.2587 132.544 26.82 132.338 26.316C132.152 25.812 132.058 25.2707 132.058 24.692C132.058 23.9267 132.217 23.2733 132.534 22.732C132.87 22.172 133.328 21.7147 133.906 21.36C134.485 21.0053 135.157 20.744 135.922 20.576C136.706 20.408 137.546 20.324 138.442 20.324H140.122V19.512C140.122 18.896 139.926 18.448 139.534 18.168C139.161 17.8693 138.629 17.72 137.938 17.72C137.397 17.72 136.837 17.804 136.258 17.972C135.698 18.14 135.073 18.4107 134.382 18.784L133.094 16.32ZM140.15 22.648L138.946 22.676C137.808 22.7133 137.014 22.9093 136.566 23.264C136.118 23.6 135.894 24.0107 135.894 24.496C135.894 25.1307 136.081 25.5693 136.454 25.812C136.846 26.036 137.285 26.148 137.77 26.148C138.256 26.148 138.713 26.008 139.142 25.728C139.59 25.448 139.926 25.1213 140.15 24.748V22.648ZM153.334 28.808C152.849 28.808 152.364 28.7427 151.878 28.612C151.412 28.5 151.02 28.3507 150.702 28.164V34.94H147.006V15.088H149.834L150.226 16.572C150.768 16.0493 151.384 15.6387 152.074 15.34C152.765 15.0227 153.54 14.864 154.398 14.864C156.153 14.864 157.534 15.4613 158.542 16.656C159.569 17.832 160.082 19.4653 160.082 21.556C160.082 22.732 159.905 23.7773 159.55 24.692C159.196 25.588 158.71 26.344 158.094 26.96C157.478 27.576 156.76 28.0427 155.938 28.36C155.117 28.6587 154.249 28.808 153.334 28.808ZM153.39 17.664C152.774 17.664 152.233 17.8133 151.766 18.112C151.3 18.392 150.945 18.6813 150.702 18.98V25.364C151.281 25.8307 152 26.064 152.858 26.064C153.269 26.064 153.67 25.9893 154.062 25.84C154.473 25.672 154.837 25.42 155.154 25.084C155.49 24.7293 155.752 24.272 155.938 23.712C156.144 23.152 156.246 22.4707 156.246 21.668C156.246 21.0893 156.181 20.5573 156.05 20.072C155.938 19.5867 155.761 19.1667 155.518 18.812C155.276 18.4573 154.977 18.1773 154.622 17.972C154.268 17.7667 153.857 17.664 153.39 17.664ZM169.002 28.808C168.517 28.808 168.032 28.7427 167.546 28.612C167.08 28.5 166.688 28.3507 166.37 28.164V34.94H162.674V15.088H165.502L165.894 16.572C166.436 16.0493 167.052 15.6387 167.742 15.34C168.433 15.0227 169.208 14.864 170.066 14.864C171.821 14.864 173.202 15.4613 174.21 16.656C175.237 17.832 175.75 19.4653 175.75 21.556C175.75 22.732 175.573 23.7773 175.218 24.692C174.864 25.588 174.378 26.344 173.762 26.96C173.146 27.576 172.428 28.0427 171.606 28.36C170.785 28.6587 169.917 28.808 169.002 28.808ZM169.058 17.664C168.442 17.664 167.901 17.8133 167.434 18.112C166.968 18.392 166.613 18.6813 166.37 18.98V25.364C166.949 25.8307 167.668 26.064 168.526 26.064C168.937 26.064 169.338 25.9893 169.73 25.84C170.141 25.672 170.505 25.42 170.822 25.084C171.158 24.7293 171.42 24.272 171.606 23.712C171.812 23.152 171.914 22.4707 171.914 21.668C171.914 21.0893 171.849 20.5573 171.718 20.072C171.606 19.5867 171.429 19.1667 171.186 18.812C170.944 18.4573 170.645 18.1773 170.29 17.972C169.936 17.7667 169.525 17.664 169.058 17.664Z" fill="white"/>
</svg>
